<svg id="Layer_1" data-name="Layer 1" xmlns="http://www.w3.org/2000/svg" viewBox="0 0 313.57 313.57"><defs><style>.cls-1{fill:#fff;}.cls-2{fill:#00bd56;}.cls-2,.cls-3{fill-rule:evenodd;}.cls-3{fill:#207dff;}</style></defs><title>logo100</title><rect class="cls-1" width="313.57" height="313.57"/><path class="cls-2" d="M228.48,118.17c-2.61,42.36-7.95,85.45-10.56,127.81q-6.78-54-13.57-108L190.53,142c-5-18.46-10.16-35-14.89-52.88,23.22-6.83,46.22-13.45,69.44-20.28,78.14-14.52,59.5,98.74-12.55,103.51.84-9.68,2.46-17.94,2.52-27.07,38.6-2.25,49.58-51.27,22.92-49.42-15.17,4.47-27.61,8.19-42.79,12.66q1.73,5.88,3.44,11.76l9.86-2.15"/><path class="cls-3" d="M150.17,155.34c-5.69-17.67-10.77-33.44-16.45-51.11q-20.43,30.57-40.84,61.15c19.3-4.79,38-8.51,57.29-10M156.3,72c-11.07,1.69-25.49,4.71-38.53,7.1L17.84,212.05c4.74-.13,35.15-.27,39.89-.41,27.86-31.3,64.4-36.29,97.69-40l11.46,38.57,31.76.7c-5.2-16.87-8.13-26.4-13.32-43.26a44.25,44.25,0,0,1,16.58,2C197.15,159,190,156.92,181.45,154.58,173.18,127.6,164.58,99,156.3,72Z"/></svg>