<svg id="Layer_1" enable-background="new 0 0 512 512" height="512" viewBox="0 0 512 512" width="512" xmlns="http://www.w3.org/2000/svg" xmlns:xlink="http://www.w3.org/1999/xlink"><linearGradient id="SVGID_1_" gradientUnits="userSpaceOnUse" x1="256" x2="256" y1="0" y2="512"><stop offset="0" stop-color="#2af598"/><stop offset="1" stop-color="#009efd"/></linearGradient><path d="m120 384.05 40 39.483v88.467h-40zm-80-185.05c0-11.028 8.972-20 20-20h80c11.028 0 20 8.972 20 20v32.201l39.593-39.082c-3.425-29.853-28.837-53.119-59.593-53.119h-80c-33.084 0-60 26.916-60 60v168h40v145h40v-185h-40zm412-60h-80c-30.912 0-56.432 23.5-59.651 53.571l39.651 39.138v-32.709c0-11.028 8.972-20 20-20h80c11.028 0 20 8.972 20 20v128h-40v185h40v-145h40v-168c0-33.084-26.916-60-60-60zm-100 373h40v-128.458l-40 39.483zm-34.45-258.091-28.1 28.467 24.846 24.525h-117.107l24.846-24.525-28.1-28.467-74.42 73.458 73.82 72.866 28.1-28.467-25.19-24.865h118.995l-25.19 24.865 28.1 28.467 73.82-72.866zm-277.55-193.909c0-33.084 26.916-60 60-60s60 26.916 60 60-26.916 60-60 60-60-26.916-60-60zm40 0c0 11.028 8.972 20 20 20s20-8.972 20-20-8.972-20-20-20-20 8.972-20 20zm272 0c0-33.084 26.916-60 60-60s60 26.916 60 60-26.916 60-60 60-60-26.916-60-60zm40 0c0 11.028 8.972 20 20 20s20-8.972 20-20-8.972-20-20-20-20 8.972-20 20z" fill="url(#SVGID_1_)"/></svg>