<svg id="Layer_1" enable-background="new 0 0 512.43 512.43" height="512" viewBox="0 0 512.43 512.43" width="512" xmlns="http://www.w3.org/2000/svg" xmlns:xlink="http://www.w3.org/1999/xlink"><linearGradient id="SVGID_1_" gradientUnits="userSpaceOnUse" x1="256.215" x2="256.215" y1=".971" y2="511.459"><stop offset="0" stop-color="#2af598"/><stop offset="1" stop-color="#009efd"/></linearGradient><path d="m189.215 272.459c0 16.212 5.711 31.11 15.216 42.808-32.924 18.523-55.216 53.8-55.216 94.192h40c0-37.495 30.505-68 68-68s68 30.505 68 68h40c0-40.391-22.292-75.669-55.216-94.192 9.505-11.698 15.216-26.596 15.216-42.808 0-37.495-30.505-68-68-68s-68 30.505-68 68zm68-28c15.439 0 28 12.561 28 28s-12.561 28-28 28-28-12.561-28-28 12.56-28 28-28zm255.215-20.987-256.215-222.502-256.215 222.502 26.228 30.201 21.987-19.094v216.88c0 33.084 26.916 60 60 60h296c33.084 0 60-26.916 60-60v-216.88l21.987 19.094zm-88.215 227.987c0 11.028-8.972 20-20 20h-296c-11.028 0-20-8.972-20-20v-251.616l168-145.895 168 145.895z" fill="url(#SVGID_1_)"/></svg>