<svg xmlns="http://www.w3.org/2000/svg" viewBox="0 0 324 47.41"><defs><style>.cls-1,.cls-2{fill:#fff;}.cls-2{fill-rule:evenodd;}</style></defs><title>logo-main</title><g id="Layer_2" data-name="Layer 2"><g id="Layer_1-2" data-name="Layer 1"><path class="cls-1" d="M173.41,34.22V32.93c-2.54-.28-2.84-.47-2.84-3.65v-14c0-3.14.3-3.37,2.84-3.62V10.33H163.2v1.28c2.54.25,2.88.48,2.88,3.62V29.28c0,3.18-.34,3.37-2.88,3.65v1.29ZM160.2,16.05c-.25-2.34-.5-4-.61-5.31a13.62,13.62,0,0,0-4.75-1c-4.71,0-7.72,3.12-7.72,7.22,0,3.52,2.34,5.51,5.86,7.42,2.53,1.41,4,2.76,4,4.92,0,2.39-1.31,3.93-3.39,3.93-3.2,0-5.29-4.25-5.92-6.59l-1.18.4a44.18,44.18,0,0,0,1,6.33,12.63,12.63,0,0,0,2,.83,10.29,10.29,0,0,0,3.41.55c4.91,0,8.22-3.31,8.22-7.53,0-3.65-2.41-5.71-6-7.57-3-1.61-4.23-2.76-4.23-4.78a3.37,3.37,0,0,1,3.34-3.64c2.7,0,4.06,2.77,4.72,5.07ZM145.05,34.22V32.93c-1.31-.23-2.31-.88-3.72-2.79-2.43-3.21-5-6.86-7.22-10.48,1.59-1.77,3-3.48,5.06-5.5a8,8,0,0,1,5.43-2.55V10.33h-9v1.28l.66.12c1.61.21,1.68.77.87,1.9a58.42,58.42,0,0,1-4.73,5.85,7,7,0,0,1-2.72,2.07V15.29c0-3.2.28-3.43,2.72-3.68V10.33h-10v1.28c2.59.25,2.93.48,2.93,3.68v14c0,3.2-.34,3.39-2.82,3.67v1.29h10.13V32.93c-2.65-.28-2.95-.47-2.95-3.67V22.71c.5-.08.93.13,1.7,1.33,2.41,3.71,5.25,7.82,6.83,10.18ZM110.4,24.33h-5.35c.86-2.61,1.77-5.27,2.72-7.91h.09Zm10.09,9.89V32.93c-2.18-.3-2.63-.81-3.77-4.07-2.22-6.29-4.33-12.69-6.51-19.1l-1.74.48L101.5,29c-1.13,3.18-1.49,3.64-3.8,3.94l0,1.29h7.6V32.93c-2.47-.35-2.54-.89-2-2.58.38-1.49.86-2.85,1.24-4.06H111c.57,1.58,1.09,3.18,1.43,4.26.5,1.57.37,2-1.66,2.38v1.29Z"/><path class="cls-1" d="M324,10.33h-8.27v1.28c2.5.15,3.2.81,3.37,2.47.07,1.05.27,2.74.27,6v6.45h-.1L305.94,10.33h-6.29v1.28c1.41.15,2.18.41,2.82,1.28s.72,1.54.72,3.93V24.5a45.62,45.62,0,0,1-.34,6c-.14,1.61-1,2.19-2.81,2.39v1.29h8.31V32.93c-2.52-.15-3.11-.85-3.27-2.54a51.69,51.69,0,0,1-.27-5.89l0-8.33h.07l14.49,18.46H321V20.08a44.45,44.45,0,0,1,.34-6.08c.16-1.79.88-2.27,2.68-2.39Zm-35.66,14H283c.86-2.61,1.77-5.27,2.72-7.91h.1Zm10.08,9.89V32.93c-2.17-.3-2.63-.81-3.76-4.07-2.23-6.29-4.34-12.69-6.52-19.1l-1.74.48-7,18.75c-1.13,3.18-1.5,3.64-3.81,3.94l0,1.29h7.6V32.93c-2.47-.35-2.54-.89-2-2.58.38-1.49.86-2.85,1.25-4.06H289c.58,1.58,1.09,3.18,1.44,4.26.49,1.57.36,2-1.66,2.38v1.29ZM274.06,22.84H263.83v1.28c3.61.38,3.81.66,3.81,3.34v3.25a2.32,2.32,0,0,1-.82,2.08,4,4,0,0,1-2,.45c-5.9,0-8.46-5.91-8.46-11.36,0-6.56,3.62-10.53,7.85-10.53,3.36,0,6,1.81,6.79,6l1.25-.3c-.25-3-.44-4.91-.53-6.17a28.71,28.71,0,0,0-6.81-1.07c-7.3,0-13.66,4.39-13.66,12.74,0,7.47,5.24,12.27,13.23,12.27a36,36,0,0,0,7.9-1.36,17.72,17.72,0,0,1-.23-3.44V27.16c0-2.49.23-2.66,1.93-3ZM249.45,10.33h-8.26v1.28c2.49.15,3.2.81,3.36,2.47.07,1.05.27,2.74.27,6v6.45h-.09L231.4,10.33h-6.29v1.28c1.41.15,2.17.41,2.81,1.28s.73,1.54.73,3.93V24.5a45.62,45.62,0,0,1-.34,6c-.14,1.61-1,2.19-2.82,2.39v1.29h8.31V32.93c-2.52-.15-3.11-.85-3.27-2.54a51.69,51.69,0,0,1-.27-5.89l0-8.33h.07l14.49,18.46h1.59V20.08a44.45,44.45,0,0,1,.34-6.08c.16-1.79.89-2.27,2.68-2.39Zm-35.66,14h-5.35c.86-2.61,1.76-5.27,2.72-7.91h.09Zm10.09,9.89V32.93c-2.18-.3-2.64-.81-3.77-4.07-2.22-6.29-4.34-12.69-6.51-19.1l-1.75.48-7,18.75c-1.13,3.18-1.5,3.64-3.8,3.94L201,34.22h7.6V32.93c-2.47-.35-2.54-.89-2-2.58.38-1.49.86-2.85,1.25-4.06h6.57c.58,1.58,1.1,3.18,1.44,4.26.49,1.57.36,2-1.66,2.38v1.29ZM192.43,13.27a1.52,1.52,0,0,1,.3-1.12,1.8,1.8,0,0,1,1.29-.38c2.12,0,4.28,1.35,4.28,5.45,0,5-2.68,5.93-4,5.93a5.35,5.35,0,0,1-1.89-.35Zm-7.13-2.94v1.28c2.38.25,2.72.48,2.72,3.62v14c0,3.19-.34,3.38-2.93,3.66v1.29H195.7V32.93c-2.95-.28-3.27-.47-3.27-3.66v-5l2.39.63a10.17,10.17,0,0,0,1.46-.08c3.47-.47,6.84-2.69,6.84-7.66a6.54,6.54,0,0,0-2.46-5.41c-1.32-1-3.27-1.41-5.91-1.41Z"/><path class="cls-2" d="M56,13.44c-.69,11.26-2.11,22.71-2.8,34q-1.82-14.35-3.61-28.7L45.9,19.79c-1.33-4.91-2.7-9.3-4-14.06C48.11,3.92,54.22,2.16,60.39.34c20.77-3.86,15.82,26.24-3.33,27.51.22-2.57.65-4.77.67-7.19C68,20.06,70.91,7,63.82,7.52L52.45,10.89c.3,1,.61,2.08.91,3.12L56,13.44"/><path class="cls-2" d="M35.17,23.32,30.8,9.74,19.94,26a94.43,94.43,0,0,1,15.23-2.67M36.8,1.18C33.86,1.62,30,2.43,26.56,3.06L0,38.39c1.26,0,9.34-.07,10.6-.11C18,30,27.72,28.64,36.56,27.66l3,10.25,8.44.18L44.51,26.6a11.79,11.79,0,0,1,4.41.52c-1.27-2.83-3.17-3.38-5.44-4C41.28,16,39,8.35,36.8,1.18Z"/></g></g></svg>